<svg width="258" height="94" viewBox="0 0 258 94" fill="none" xmlns="http://www.w3.org/2000/svg">
<path d="M97.1739 14.0625H152.88L154.273 28.125H95.7812L97.1739 14.0625Z" fill="#FF4848"/>
<path d="M95.7812 28.125H154.273V50H95.7812V28.125Z" fill="#FF4848"/>
<rect x="102.746" width="43.1726" height="21.875" fill="#FF4848"/>
<ellipse cx="102.749" cy="10.9375" rx="9.74864" ry="10.9375" fill="#FF4848"/>
<ellipse cx="147.315" cy="10.9375" rx="9.74864" ry="10.9375" fill="#FF4848"/>
<rect x="45" y="24" width="20" height="7" rx="1" fill="#FF3F3F"/>
<rect x="45" y="33" width="20" height="7" rx="1" fill="#FF3F3F"/>
<rect x="45" y="42" width="20" height="7" rx="1" fill="#FF3F3F"/>
<rect x="46" y="31" width="18" height="2" fill="#FF3F3F"/>
<rect x="45" y="15" width="20" height="7" rx="1" fill="#FF3F3F"/>
<rect x="46" y="22" width="18" height="2" fill="#FF3F3F"/>
<rect x="46" y="40" width="18" height="2" fill="#FF3F3F"/>
<path d="M55 7L64.5263 15.25H45.4737L55 7Z" fill="#FF3F3F"/>
<rect x="52" y="9" width="6" height="2" fill="#FF3F3F"/>
<rect x="51" y="5" width="8" height="4" rx="1" fill="#FF3F3F"/>
<rect x="51" y="7" width="8" height="2" fill="#FF3F3F"/>
<circle cx="98.7421" cy="38.0843" r="7.65625" transform="rotate(14.9512 98.7421 38.0843)" fill="#FF6565"/>
<circle cx="107.519" cy="46.7669" r="7.65625" transform="rotate(14.9512 107.519 46.7669)" fill="#FF6565"/>
<circle cx="96.371" cy="46.9602" r="7.65625" transform="rotate(14.9512 96.371 46.9602)" fill="#FF6565"/>
<circle cx="119.058" cy="45.094" r="7.65625" transform="rotate(14.9512 119.058 45.094)" fill="#FF6565"/>
<circle cx="110.973" cy="39.7649" r="7.65625" transform="rotate(14.9512 110.973 39.7649)" fill="#FF6565"/>
<circle cx="106.34" cy="27.4339" r="7.65625" transform="rotate(14.9512 106.34 27.4339)" fill="#FF6565"/>
<circle cx="119.112" cy="30.0527" r="8.42188" transform="rotate(14.9512 119.112 30.0527)" fill="#FF6565"/>
<circle cx="129.37" cy="39.1299" r="8.42188" transform="rotate(14.9512 129.37 39.1299)" fill="#FF6565"/>
<circle cx="116.651" cy="21.4697" r="8.42188" transform="rotate(14.9512 116.651 21.4697)" fill="#FF6565"/>
<circle cx="124.737" cy="26.7988" r="8.42188" transform="rotate(14.9512 124.737 26.7988)" fill="#FF6565"/>
<ellipse cx="137.116" cy="30.8965" rx="6.125" ry="3.0625" transform="rotate(14.9512 137.116 30.8965)" fill="#FF6565"/>
<ellipse cx="137.081" cy="26.5194" rx="6.125" ry="3.0625" transform="rotate(-30.0488 137.081 26.5194)" fill="#FF6565"/>
<circle cx="214.65" cy="60.9612" r="7.65625" transform="rotate(-122.195 214.65 60.9612)" fill="#FF4747"/>
<circle cx="214.122" cy="48.6272" r="7.65625" transform="rotate(-122.195 214.122 48.6272)" fill="#FF4747"/>
<circle cx="222.427" cy="56.0657" r="7.65625" transform="rotate(-122.195 222.427 56.0657)" fill="#FF4747"/>
<circle cx="204.525" cy="42.0042" r="7.65625" transform="rotate(-122.195 204.525 42.0042)" fill="#FF4747"/>
<circle cx="206.829" cy="51.4104" r="7.65625" transform="rotate(-122.195 206.829 51.4104)" fill="#FF4747"/>
<circle cx="201.837" cy="63.6009" r="7.65625" transform="rotate(-122.195 201.837 63.6009)" fill="#FF4747"/>
<circle cx="194.253" cy="52.9943" r="8.42188" transform="rotate(-122.195 194.253 52.9943)" fill="#FF4747"/>
<circle cx="192.909" cy="39.3644" r="8.42188" transform="rotate(-122.195 192.909 39.3644)" fill="#FF4747"/>
<circle cx="190.222" cy="60.9611" r="8.42188" transform="rotate(-122.195 190.222 60.9611)" fill="#FF4747"/>
<circle cx="187.917" cy="51.5548" r="8.42188" transform="rotate(-122.195 187.917 51.5548)" fill="#FF4747"/>
<ellipse cx="181.633" cy="40.1323" rx="6.125" ry="3.0625" transform="rotate(-122.195 181.633 40.1323)" fill="#FF4747"/>
<ellipse cx="178.679" cy="43.3632" rx="6.125" ry="3.0625" transform="rotate(-167.195 178.679 43.3632)" fill="#FF4747"/>
<circle cx="146.182" cy="39.993" r="22.1824" fill="#FF3F3F"/>
<circle cx="164.743" cy="31.3923" r="11.7703" fill="#FF3F3F"/>
<rect x="155.688" y="35.4658" width="35.3108" height="4.52703" transform="rotate(-30 155.688 35.4658)" fill="#FF3F3F"/>
<circle cx="185.568" cy="18.7162" r="2.71622" fill="#FF3F3F"/>
<circle cx="188.283" cy="21.432" r="2.71622" fill="#FF3F3F"/>
<path d="M206 22L229 29V49H206V22Z" fill="#FF7272"/>
<rect y="52" width="258" height="42" fill="white"/>
<path d="M1.90625 82V59.375H6.59375V78.125H16.3438V82H1.90625ZM26.9688 82.3438C21.7812 82.3438 18.5938 78.9688 18.5938 73.5938C18.5938 68.3438 21.8125 64.8125 26.7812 64.8125C31.25 64.8125 34.75 67.625 34.75 73.4062V74.7188H23.1562C23.1562 77.2812 24.6875 78.875 27.0625 78.875C28.625 78.875 29.75 78.1875 30.2188 77.1562H34.625C33.9688 80.2812 31.1562 82.3438 26.9688 82.3438ZM23.1562 71.8125H30.375C30.375 69.75 28.9375 68.2812 26.875 68.2812C24.75 68.2812 23.2344 69.8594 23.1562 71.8125ZM46.5938 65.0312V68.5H43.4062V76.7812C43.4062 78.125 44.0625 78.4688 45 78.5C45.4688 78.5 46.2812 78.4688 46.8438 78.4062V82.0625C46.3438 82.1562 45.5312 82.2188 44.375 82.2188C41.0312 82.2188 38.75 80.7188 38.7812 77.4375V68.5H36.4375V65.0312H38.7812V60.9688H43.4062V65.0312H46.5938ZM55.6875 59.375L53 68.2812H49.6875L51.25 59.375H55.6875ZM66.2812 70.0625C66.0938 68.875 65.0312 68.0938 63.5 68.0938C62 68.0938 60.8438 68.8125 60.875 69.8438C60.8438 70.5938 61.4688 71.1875 63.0625 71.5312L66.0938 72.1562C69.375 72.8438 70.9688 74.3125 71 76.75C70.9688 80.0938 67.9688 82.3438 63.4688 82.3438C58.875 82.3438 56.1875 80.2812 55.8125 76.9688H60.4688C60.6875 78.3125 61.7812 79 63.4688 79C65.1562 79 66.2812 78.3125 66.2812 77.2188C66.2812 76.3438 65.5625 75.8125 63.9688 75.4688L61.1562 74.9062C57.9375 74.2812 56.25 72.5938 56.2812 70.0938C56.25 66.8438 59.0625 64.8125 63.4375 64.8125C67.7188 64.8125 70.375 66.8438 70.625 70.0625H66.2812ZM81.3125 82V59.375H96.5V63.25H86V68.75H95.7188V72.625H86V78.125H96.5312V82H81.3125ZM99.25 77.25C99.25 73.4688 102.312 72.2188 105.562 72.0312C106.781 71.9531 109.062 71.8438 109.781 71.8125V70.4375C109.75 69.0312 108.781 68.1875 107.062 68.1875C105.5 68.1875 104.5 68.9062 104.25 70.0625H99.8438C100.125 67.125 102.688 64.8125 107.188 64.8125C110.875 64.8125 114.375 66.4688 114.375 70.5625V82H110V79.6562H109.875C109.031 81.2188 107.438 82.3125 104.906 82.3125C101.656 82.3125 99.25 80.625 99.25 77.25ZM103.688 77.125C103.688 78.4375 104.75 79.125 106.219 79.125C108.312 79.125 109.812 77.7188 109.781 75.9375V74.6875C109.078 74.7188 107.109 74.8281 106.312 74.9062C104.719 75.0625 103.688 75.8125 103.688 77.125ZM126.844 65.0312V68.5H123.656V76.7812C123.656 78.125 124.312 78.4688 125.25 78.5C125.719 78.5 126.531 78.4688 127.094 78.4062V82.0625C126.594 82.1562 125.781 82.2188 124.625 82.2188C121.281 82.2188 119 80.7188 119.031 77.4375V68.5H116.688V65.0312H119.031V60.9688H123.656V65.0312H126.844ZM129.75 82V65.0312H134.375V82H129.75ZM132.062 62.8125C130.656 62.8125 129.531 61.75 129.531 60.4688C129.531 59.1562 130.656 58.0938 132.062 58.0938C133.438 58.0938 134.562 59.1562 134.562 60.4688C134.562 61.75 133.438 62.8125 132.062 62.8125ZM142.594 72.1875V82H137.969V65.0312H142.375V68H142.562C143.344 66.0312 145.156 64.8125 147.656 64.8125C151.188 64.8125 153.531 67.2188 153.5 71.1875V82H148.906V72C148.906 69.9062 147.75 68.6562 145.844 68.6562C143.906 68.6562 142.594 69.9375 142.594 72.1875ZM164.719 88.7188C160.031 88.7188 157.156 86.625 156.875 83.4062H161.438C161.688 84.75 162.969 85.375 164.812 85.375C166.969 85.375 168.406 84.4688 168.406 82.0938V79H168.188C167.562 80.375 166.062 81.75 163.344 81.75C159.5 81.75 156.438 79.0625 156.438 73.4062C156.438 67.6562 159.594 64.8125 163.344 64.8125C166.188 64.8125 167.562 66.5 168.188 67.875H168.375V65.0312H172.969V82.1875C172.969 86.5 169.531 88.7188 164.719 88.7188ZM164.781 78.2812C167.094 78.2812 168.406 76.4688 168.406 73.4688C168.406 70.4375 167.094 68.5 164.781 68.5C162.438 68.5 161.188 70.5312 161.188 73.4688C161.188 76.4062 162.438 78.2812 164.781 78.2812ZM183.156 63.25V59.375H201.688V63.25H194.75V82H190.094V63.25H183.156ZM204.5 82V65.0312H209.125V82H204.5ZM206.812 62.8125C205.406 62.8125 204.281 61.75 204.281 60.4688C204.281 59.1562 205.406 58.0938 206.812 58.0938C208.188 58.0938 209.312 59.1562 209.312 60.4688C209.312 61.75 208.188 62.8125 206.812 62.8125ZM212.719 82V65.0312H217.125V68H217.312C218.031 66.0312 219.75 64.8125 222.031 64.8125C224.375 64.8125 226.094 66.0312 226.656 68H226.812C227.531 66.0625 229.438 64.8125 231.938 64.8125C235.094 64.8125 237.281 66.9062 237.281 70.5938V82H232.656V71.5C232.656 69.5625 231.531 68.625 230 68.625C228.25 68.625 227.25 69.8438 227.25 71.625V82H222.75V71.375C222.75 69.6875 221.688 68.625 220.125 68.625C218.562 68.625 217.344 69.875 217.344 71.8125V82H212.719ZM248.531 82.3438C243.344 82.3438 240.156 78.9688 240.156 73.5938C240.156 68.3438 243.375 64.8125 248.344 64.8125C252.812 64.8125 256.312 67.625 256.312 73.4062V74.7188H244.719C244.719 77.2812 246.25 78.875 248.625 78.875C250.188 78.875 251.312 78.1875 251.781 77.1562H256.188C255.531 80.2812 252.719 82.3438 248.531 82.3438ZM244.719 71.8125H251.938C251.938 69.75 250.5 68.2812 248.438 68.2812C246.312 68.2812 244.797 69.8594 244.719 71.8125Z" fill="black"/>
<rect y="49" width="258" height="3" fill="black"/>
</svg>
